# xmcd
# 
# Track frame offsets:
#     187
#     18975
#     36825
#     62027
#     80220
#     99000
#     116877
#     141275
#     161885
#     181612
# 
# Disc length: 2678
# 
# Revision: 1
# Processed by: cddbd v1.5.2PL0 Copyright (c) Steve Scherf et al.
# Submitted via: fre:ac v1.0.17
# 
DISCID=810a740a
DTITLE=長山洋子 - F-1
DYEAR=0
DGENRE=J-Pop
TTITLE0=うたうように
TTITLE1=NO ESCAPE
TTITLE2=雨にうたれて
TTITLE3=あたらしいYesterday
TTITLE4=ラハイナの風
TTITLE5=CAR WASH
TTITLE6=あきらかに愛になってた
TTITLE7=バナナフィッシュの日
TTITLE8=Be-Song
TTITLE9=屋上へゆこうよ
EXTD=
EXTT0=
EXTT1=
EXTT2=
EXTT3=
EXTT4=
EXTT5=
EXTT6=
EXTT7=
EXTT8=
EXTT9=
PLAYORDER=
